# xmcd CD database file
#
# Track frame offsets:
#	150
#	12095
#	24583
#	35843
#	48393
#	60138
#	71618
#	86515
#	96458
#	107710
#	120705
#	134183
#	145045
#	161598
#	176688
#
# Disc length: 2534 seconds
#
# Revision: 0
# Processed by: cddbd v1.5.1PL0 Copyright (c) Steve Scherf et al.
# Submitted via: CDex 1.51
#
DISCID=cf09e40f
DTITLE=Putte Wickman and Ivan Renliden - Så Skön som Solen
DYEAR=1900
DGENRE=Jazz
TTITLE0=Så skln som solen
TTITLE1=Underbart är kort
TTITLE2=Flicka från backafall
TTITLE3=Hör hur västanvinden susar
TTITLE4=Ensam nu
TTITLE5=När en stjärna från himlen faller
TTITLE6=Dalälven
TTITLE7=Känslan i maj
TTITLE8=Följ mej bortåt vägen
TTITLE9=Åh gamla stan
TTITLE10=Blomman
TTITLE11=Det gåtfulla folket
TTITLE12=Den vackraste visan
TTITLE13=Nu har jag fått den jag vill ha
TTITLE14=Balladen om herr fredrik åkare
EXTD=
EXTT0=
EXTT1=
EXTT2=
EXTT3=
EXTT4=
EXTT5=
EXTT6=
EXTT7=
EXTT8=
EXTT9=
EXTT10=
EXTT11=
EXTT12=
EXTT13=
EXTT14=
PLAYORDER=
